M48
;Layer_Color=9474304
;FILE_FORMAT=2:4
INCH,TZ
;TYPE=PLATED
T01F00S00C0.0400
T02F00S00C0.0709
T03F00S00C0.1260
%
T01
X23890Y35614
Y36614
X24890
X25890
X26890
X27890
X28890
X29890
X30890
X31890
X32890
X33890
X34890
X35890
X36890
Y35614
X35890
X34890
X33890
X32890
X31890
X30890
X29890
X28890
X27890
X26890
X25890
X24890
X37890
Y36614
T02
X6713Y4705
X10059
X13406
X16752
X20098
X23445
X26791
X30138
X33484
X36831
X40177
X43524
X46870
X50217
X53563
X56909
Y6358
X53563
X50217
X46870
X43524
X40177
X36831
X33484
X30138
X26791
X23445
X20098
X16752
X13406
X10059
X6713
T03
X1969Y1969
X61024
Y37402
X1969
M30
