G04*
G04 #@! TF.GenerationSoftware,Altium Limited,Altium Designer,23.6.0 (18)*
G04*
G04 Layer_Color=16711935*
%FSLAX25Y25*%
%MOIN*%
G70*
G04*
G04 #@! TF.SameCoordinates,E1412BDA-DD06-4AC1-96E9-709468DC3EB3*
G04*
G04*
G04 #@! TF.FilePolarity,Negative*
G04*
G01*
G75*
%ADD13C,0.11233*%
%ADD14C,0.32296*%
%ADD15C,0.06600*%
D13*
X67126Y47047D02*
D03*
Y63583D02*
D03*
X100591Y47047D02*
D03*
Y63583D02*
D03*
X134055Y47047D02*
D03*
Y63583D02*
D03*
X167520Y47047D02*
D03*
Y63583D02*
D03*
X200984Y47047D02*
D03*
Y63583D02*
D03*
X234449Y47047D02*
D03*
Y63583D02*
D03*
X267913Y47047D02*
D03*
Y63583D02*
D03*
X301378Y47047D02*
D03*
Y63583D02*
D03*
X334842Y47047D02*
D03*
Y63583D02*
D03*
X368307Y47047D02*
D03*
Y63583D02*
D03*
X401772Y47047D02*
D03*
Y63583D02*
D03*
X435236Y47047D02*
D03*
Y63583D02*
D03*
X468701Y47047D02*
D03*
Y63583D02*
D03*
X502165Y47047D02*
D03*
Y63583D02*
D03*
X535630Y47047D02*
D03*
Y63583D02*
D03*
X569095Y47047D02*
D03*
Y63583D02*
D03*
D14*
X610236Y374016D02*
D03*
X19685D02*
D03*
X610236Y19685D02*
D03*
X19685D02*
D03*
D15*
X238898Y366142D02*
D03*
X248898D02*
D03*
X258898D02*
D03*
X268898D02*
D03*
X278898D02*
D03*
X288898D02*
D03*
X298898D02*
D03*
X308898D02*
D03*
X318898D02*
D03*
X328898D02*
D03*
X338898D02*
D03*
X348898D02*
D03*
X358898D02*
D03*
X368898D02*
D03*
X378898D02*
D03*
X238898Y356142D02*
D03*
X248898D02*
D03*
X258898D02*
D03*
X268898D02*
D03*
X278898D02*
D03*
X288898D02*
D03*
X298898D02*
D03*
X308898D02*
D03*
X318898D02*
D03*
X328898D02*
D03*
X338898D02*
D03*
X348898D02*
D03*
X358898D02*
D03*
X368898D02*
D03*
X378898D02*
D03*
M02*
